<svg version="1.2" xmlns="http://www.w3.org/2000/svg" viewBox="0 0 70 70" width="70" height="70">
	<title>question</title>
	<style>
		.s0 { fill: #000000 } 
	</style>
	<path class="s0" d="m27.5 27.5c0-4.14 3.36-7.5 7.5-7.5 4.14 0 7.5 3.36 7.5 7.5 0 3.34-2.18 6.16-5.2 7.14-2.21 0.72-4.8 2.76-4.8 5.99v1.87c0 1.38 1.12 2.5 2.5 2.5 1.38 0 2.5-1.12 2.5-2.5v-1.88c0-0.13 0.05-0.32 0.27-0.57 0.24-0.25 0.62-0.5 1.07-0.65 5.03-1.62 8.66-6.33 8.66-11.9 0-6.91-5.59-12.5-12.5-12.5-6.91 0-12.5 5.59-12.5 12.5 0 1.38 1.12 2.5 2.5 2.5 1.38 0 2.5-1.12 2.5-2.5zm7.5 27.5c1.73 0 3.13-1.4 3.13-3.13-0.01-1.72-1.4-3.12-3.13-3.12-1.73 0-3.13 1.4-3.13 3.13 0 1.72 1.4 3.12 3.13 3.12z"/>
</svg>